<svg width="52" height="52" viewBox="0 0 52 52" fill="none" xmlns="http://www.w3.org/2000/svg">
<circle cx="26" cy="26" r="26" fill="#F6F4FC"/>
<path d="M24.2927 18.561C24.6968 18.561 25.0244 18.905 25.0244 19.3293V27.5244H32.8293C33.1997 27.5244 33.5058 27.8134 33.5543 28.1884L33.561 28.2927C33.561 33.3845 29.6298 37 24.7805 37C19.9312 37 16 32.8723 16 27.7805C16 22.6887 19.4434 18.561 24.2927 18.561ZM23.561 20.1355L23.3572 20.1598C19.7579 20.6421 17.4634 23.8701 17.4634 27.7805C17.4634 32.0237 20.7394 35.4634 24.7805 35.4634C28.5046 35.4634 31.579 33.0543 32.0383 29.275L32.0605 29.061H24.2927C23.9222 29.061 23.6161 28.7719 23.5677 28.3969L23.561 28.2927V20.1355ZM27.2195 16C32.0688 16 36 20.1277 36 25.2195C36 25.6438 35.6724 25.9878 35.2683 25.9878H27.2195C26.8154 25.9878 26.4878 25.6438 26.4878 25.2195V16.7683C26.4878 16.344 26.8154 16 27.2195 16ZM27.9512 17.5745V24.4512H34.4995L34.4773 24.2372C34.0571 20.7796 31.448 18.0401 28.155 17.5988L27.9512 17.5745Z" fill="#212121"/>
</svg>
