<svg width="52" height="52" viewBox="0 0 52 52" fill="none" xmlns="http://www.w3.org/2000/svg">
<circle cx="26" cy="26" r="26" fill="#F6F4FC"/>
<path d="M28.8797 24.252C30.0073 24.252 30.9214 25.0637 30.9214 26.065V30.9849C30.9214 33.5603 28.5703 35.648 25.6701 35.648C22.77 35.648 20.4189 33.5603 20.4189 30.9849V26.065C20.4189 25.0637 21.333 24.252 22.4606 24.252H28.8797ZM28.8797 25.806H22.4606C22.2995 25.806 22.1689 25.922 22.1689 26.065V30.9849C22.1689 32.702 23.7365 34.094 25.6701 34.094C27.6038 34.094 29.1714 32.702 29.1714 30.9849V26.065C29.1714 25.922 29.0408 25.806 28.8797 25.806ZM16.0417 24.252L19.9865 24.251C19.5859 24.6814 19.3249 25.218 19.2653 25.8062L16.0417 25.806C15.8806 25.806 15.75 25.922 15.75 26.065V29.4307C15.75 30.8619 17.0565 32.022 18.6681 32.022C18.9014 32.022 19.1284 31.9977 19.3459 31.9518C19.4447 32.4738 19.6251 32.9718 19.874 33.4351C19.4901 33.5274 19.0855 33.576 18.6681 33.576C16.09 33.576 14 31.7201 14 29.4307V26.065C14 25.0637 14.9141 24.252 16.0417 24.252ZM31.3538 24.251L35.2917 24.252C36.4192 24.252 37.3333 25.0637 37.3333 26.065V29.432C37.3333 31.7207 35.244 33.576 32.6667 33.576C32.2508 33.576 31.8477 33.5277 31.464 33.4371C31.7147 32.9728 31.8953 32.4749 31.9959 31.9527C32.2107 31.9981 32.4355 32.022 32.6667 32.022C34.2775 32.022 35.5833 30.8624 35.5833 29.432V26.065C35.5833 25.922 35.4528 25.806 35.2917 25.806L32.075 25.8062C32.0153 25.218 31.7544 24.6814 31.3538 24.251ZM25.6667 17C27.5997 17 29.1667 18.3915 29.1667 20.108C29.1667 21.8245 27.5997 23.216 25.6667 23.216C23.7337 23.216 22.1667 21.8245 22.1667 20.108C22.1667 18.3915 23.7337 17 25.6667 17ZM33.25 18.036C34.8608 18.036 36.1667 19.1956 36.1667 20.626C36.1667 22.0564 34.8608 23.216 33.25 23.216C31.6392 23.216 30.3333 22.0564 30.3333 20.626C30.3333 19.1956 31.6392 18.036 33.25 18.036ZM18.0833 18.036C19.6942 18.036 21 19.1956 21 20.626C21 22.0564 19.6942 23.216 18.0833 23.216C16.4725 23.216 15.1667 22.0564 15.1667 20.626C15.1667 19.1956 16.4725 18.036 18.0833 18.036ZM25.6667 18.554C24.7002 18.554 23.9167 19.2498 23.9167 20.108C23.9167 20.9663 24.7002 21.662 25.6667 21.662C26.6332 21.662 27.4167 20.9663 27.4167 20.108C27.4167 19.2498 26.6332 18.554 25.6667 18.554ZM33.25 19.59C32.6057 19.59 32.0833 20.0538 32.0833 20.626C32.0833 21.1982 32.6057 21.662 33.25 21.662C33.8943 21.662 34.4167 21.1982 34.4167 20.626C34.4167 20.0538 33.8943 19.59 33.25 19.59ZM18.0833 19.59C17.439 19.59 16.9167 20.0538 16.9167 20.626C16.9167 21.1982 17.439 21.662 18.0833 21.662C18.7277 21.662 19.25 21.1982 19.25 20.626C19.25 20.0538 18.7277 19.59 18.0833 19.59Z" fill="#121B30"/>
</svg>
